<svg xmlns="http://www.w3.org/2000/svg" width="40" height="40"  type="code"
<svg xmlns="http://www.w3.org/2000/svg" width="40" height="40" viewBox="0 0 24 24" fill="none" stroke="#ffffff" stroke-width="2" stroke-linecap="round" stroke-linejoin="round">
  <path d="M16 16v1a2 2 0 0 1-2 2H3a2 2 0 0 1-2-2V7a2 2 0 0 1 2-2h2m5.66 0H14a2 2 0 0 1 2 2v3.34"></path>
  <path d="M14 3v4a2 2 0 0 0 2 2h4"></path>
  <circle cx="18" cy="18" r="3"></circle>
  <circle cx="6" cy="12" r="3"></circle>
  <line x1="9" y1="12" x2="15" y2="18"></line>
</svg>